<?xml version="1.0" encoding="utf-8"?>
<!-- Generator: Adobe Illustrator 23.1.0, SVG Export Plug-In . SVG Version: 6.00 Build 0)  -->
<svg version="1.1" id="Layer_1" xmlns="http://www.w3.org/2000/svg" xmlns:xlink="http://www.w3.org/1999/xlink" x="0px" y="0px"
	 viewBox="0 0 600 600" style="enable-background:new 0 0 600 600;background-color: transparent;" xml:space="preserve">
<style type="text/css">
	.st0{fill:#F48278;stroke:#FFFFFF;stroke-width:0.25;stroke-miterlimit:10;}
</style>
<rect class="st0" width="5" height="600"/>
<rect x="192.5" class="st0" width="5" height="600"/>
<rect x="392.5" class="st0" width="5" height="600"/>
<rect x="595" class="st0" width="5" height="600"/>
<rect x="297.5" y="-297.5" transform="matrix(6.123234e-17 -1 1 6.123234e-17 297.5 302.5)" class="st0" width="5" height="600"/>
<rect x="297.5" y="297.5" transform="matrix(6.123234e-17 -1 1 6.123234e-17 -297.5 897.5)" class="st0" width="5" height="600"/>
<rect x="298" y="-105" transform="matrix(6.123234e-17 -1 1 6.123234e-17 105.4615 495.4615)" class="st0" width="5" height="600"/>
<rect x="298" y="95" transform="matrix(6.123234e-17 -1 1 6.123234e-17 -94.5385 695.4615)" class="st0" width="5" height="600"/>
</svg>
